<?xml version="1.0" encoding="UTF-8"?>
<!DOCTYPE svg PUBLIC "-//W3C//DTD SVG 1.1//EN" "http://www.w3.org/Graphics/SVG/1.1/DTD/svg11.dtd">
<svg xmlns="http://www.w3.org/2000/svg" version="1.1" width="136px" height="109px" style="shape-rendering:geometricPrecision; text-rendering:geometricPrecision; image-rendering:optimizeQuality; fill-rule:evenodd; clip-rule:evenodd" xmlns:xlink="http://www.w3.org/1999/xlink">
<g><path style="opacity:0.756" fill="#0f91d2" d="M 1.5,2.5 C 5.43669,2.20653 9.27002,2.53986 13,3.5C 13.5,26.1642 13.6666,48.8309 13.5,71.5C 9.16667,71.5 4.83333,71.5 0.5,71.5C 0.177586,48.425 0.510919,25.425 1.5,2.5 Z"/></g>
<g><path style="opacity:1" fill="#0f8fd0" d="M 72.5,13.5 C 72.1667,13.5 71.8333,13.5 71.5,13.5C 70.4901,9.9866 68.4901,7.15326 65.5,5C 52.5,4.33333 39.5,4.33333 26.5,5C 23.8647,6.96053 22.0314,9.46053 21,12.5C 20.5001,28.1631 20.3334,43.8298 20.5,59.5C 19.5039,44.676 19.1706,29.676 19.5,14.5C 19.55,9.93587 21.55,6.43587 25.5,4C 32.2573,2.89125 39.0906,2.39125 46,2.5C 52.9094,2.39125 59.7427,2.89125 66.5,4C 69.9095,6.24932 71.9095,9.41598 72.5,13.5 Z"/></g>
<g><path style="opacity:0.811" fill="#0f92d4" d="M 79.5,2.5 C 97.1698,2.33339 114.836,2.50006 132.5,3C 133.471,8.07172 133.805,13.2384 133.5,18.5C 126.5,18.5 119.5,18.5 112.5,18.5C 112.5,36.1667 112.5,53.8333 112.5,71.5C 108.167,71.5 103.833,71.5 99.5,71.5C 99.5,53.8333 99.5,36.1667 99.5,18.5C 92.825,18.6663 86.1583,18.4996 79.5,18C 78.1904,12.8338 78.1904,7.6671 79.5,2.5 Z"/></g>
<g><path style="opacity:1" fill="#0c6796" d="M 1.5,4.5 C 4.83333,4.5 8.16667,4.5 11.5,4.5C 11.5,26.5 11.5,48.5 11.5,70.5C 8.16667,70.5 4.83333,70.5 1.5,70.5C 1.5,48.5 1.5,26.5 1.5,4.5 Z"/></g>
<g><path style="opacity:1" fill="#0c6796" d="M 71.5,13.5 C 71.5,16.8333 71.5,20.1667 71.5,23.5C 68.1667,23.5 64.8333,23.5 61.5,23.5C 61.16,21.321 60.16,19.4877 58.5,18C 50.1667,17.3333 41.8333,17.3333 33.5,18C 32.2986,18.9025 31.4652,20.0692 31,21.5C 30.3333,32.1667 30.3333,42.8333 31,53.5C 32.1667,54.6667 33.3333,55.8333 34.5,57C 42.1667,57.6667 49.8333,57.6667 57.5,57C 60.2224,55.7275 61.5557,53.5608 61.5,50.5C 64.8333,50.5 68.1667,50.5 71.5,50.5C 71.8254,55.5988 71.3254,60.5988 70,65.5C 68.4571,67.3783 66.6238,68.8783 64.5,70C 52.1667,70.6667 39.8333,70.6667 27.5,70C 23.3008,67.7745 20.9675,64.2745 20.5,59.5C 20.3334,43.8298 20.5001,28.1631 21,12.5C 22.0314,9.46053 23.8647,6.96053 26.5,5C 39.5,4.33333 52.5,4.33333 65.5,5C 68.4901,7.15326 70.4901,9.9866 71.5,13.5 Z"/></g>
<g><path style="opacity:1" fill="#0c6796" d="M 80.5,4.5 C 97.8333,4.5 115.167,4.5 132.5,4.5C 132.5,8.83333 132.5,13.1667 132.5,17.5C 125.5,17.5 118.5,17.5 111.5,17.5C 111.5,35.1667 111.5,52.8333 111.5,70.5C 108.167,70.5 104.833,70.5 101.5,70.5C 101.5,52.8333 101.5,35.1667 101.5,17.5C 94.5,17.5 87.5,17.5 80.5,17.5C 80.5,13.1667 80.5,8.83333 80.5,4.5 Z"/></g>
<g><path style="opacity:1" fill="#0e80ba" d="M 71.5,13.5 C 71.8333,13.5 72.1667,13.5 72.5,13.5C 73.8333,17.1667 73.8333,20.8333 72.5,24.5C 68.6286,24.815 64.9619,24.4816 61.5,23.5C 64.8333,23.5 68.1667,23.5 71.5,23.5C 71.5,20.1667 71.5,16.8333 71.5,13.5 Z"/></g>
<g><path style="opacity:0.467" fill="#0f92d4" d="M 19.5,14.5 C 19.1706,29.676 19.5039,44.676 20.5,59.5C 20.9675,64.2745 23.3008,67.7745 27.5,70C 39.8333,70.6667 52.1667,70.6667 64.5,70C 66.6238,68.8783 68.4571,67.3783 70,65.5C 71.3254,60.5988 71.8254,55.5988 71.5,50.5C 68.1667,50.5 64.8333,50.5 61.5,50.5C 61.5557,53.5608 60.2224,55.7275 57.5,57C 49.8333,57.6667 42.1667,57.6667 34.5,57C 33.3333,55.8333 32.1667,54.6667 31,53.5C 30.3333,42.8333 30.3333,32.1667 31,21.5C 31.4652,20.0692 32.2986,18.9025 33.5,18C 41.8333,17.3333 50.1667,17.3333 58.5,18C 60.16,19.4877 61.16,21.321 61.5,23.5C 64.9619,24.4816 68.6286,24.815 72.5,24.5C 68.6493,25.8095 64.6493,25.8095 60.5,24.5C 60.2782,21.2871 58.6115,19.4538 55.5,19C 49.1667,18.3333 42.8333,18.3333 36.5,19C 35.376,19.2492 34.376,19.7492 33.5,20.5C 32.3561,31.4534 32.1895,42.4534 33,53.5C 33.5,54 34,54.5 34.5,55C 42.1667,55.6667 49.8333,55.6667 57.5,55C 59.0814,53.172 60.4147,51.172 61.5,49C 65.1667,48.3333 68.8333,48.3333 72.5,49C 74.0711,54.9794 73.5711,60.8127 71,66.5C 69.4571,68.3783 67.6238,69.8783 65.5,71C 52.5,71.6667 39.5,71.6667 26.5,71C 22.4195,68.6875 19.9195,65.1875 19,60.5C 18.1721,44.9945 18.3388,29.6611 19.5,14.5 Z"/></g>
<g><path style="opacity:0.811" fill="#0f93d5" d="M 76.5,81.5 C 77.6546,88.3209 77.8213,95.3209 77,102.5C 76.1667,103.333 75.3333,104.167 74.5,105C 66.5069,105.5 58.5069,105.666 50.5,105.5C 50.5,96.1667 50.5,86.8333 50.5,77.5C 58.1739,77.3336 65.8406,77.5003 73.5,78C 75.4257,78.4224 76.4257,79.5891 76.5,81.5 Z M 57.5,85.5 C 61.5546,85.1758 65.5546,85.5091 69.5,86.5C 67.5,86.8333 65.5,87.1667 63.5,87.5C 61.0478,87.4609 59.0478,86.7943 57.5,85.5 Z M 57.5,95.5 C 61.7032,95.0761 65.7032,95.5761 69.5,97C 67.5,97.1667 65.5,97.3333 63.5,97.5C 61.0478,97.4609 59.0478,96.7943 57.5,95.5 Z"/></g>
<g><path style="opacity:0.896" fill="#0f94d7" d="M 131.5,78.5 C 132.493,87.3178 132.827,96.3178 132.5,105.5C 129.833,105.5 127.167,105.5 124.5,105.5C 124.666,100.821 124.499,96.1548 124,91.5C 121.651,94.0168 119.151,96.3501 116.5,98.5C 113.516,96.0164 110.682,93.3497 108,90.5C 107.501,95.4889 107.334,100.489 107.5,105.5C 105.167,105.5 102.833,105.5 100.5,105.5C 100.5,96.1667 100.5,86.8333 100.5,77.5C 102.857,77.3367 105.19,77.5034 107.5,78C 110.349,81.0162 113.349,83.8496 116.5,86.5C 119.651,83.8496 122.651,81.0162 125.5,78C 127.712,77.2109 129.712,77.3775 131.5,78.5 Z"/></g>
<g><path style="opacity:1" fill="#0c6897" d="M 76.5,81.5 C 75.5378,88.1849 75.3711,94.8516 76,101.5C 75.1667,102.333 74.3333,103.167 73.5,104C 66.1742,104.5 58.8409,104.666 51.5,104.5C 51.5,96.1667 51.5,87.8333 51.5,79.5C 59.1739,79.3336 66.8406,79.5003 74.5,80C 75.0442,80.7172 75.7109,81.2172 76.5,81.5 Z M 57.5,85.5 C 59.0478,86.7943 61.0478,87.4609 63.5,87.5C 65.5,87.1667 67.5,86.8333 69.5,86.5C 65.5546,85.5091 61.5546,85.1758 57.5,85.5 Z M 57.5,95.5 C 59.0478,96.7943 61.0478,97.4609 63.5,97.5C 65.5,97.3333 67.5,97.1667 69.5,97C 65.7032,95.5761 61.7032,95.0761 57.5,95.5 Z"/></g>
<g><path style="opacity:1" fill="#0c6796" d="M 126.5,79.5 C 127.833,79.5 129.167,79.5 130.5,79.5C 130.5,87.8333 130.5,96.1667 130.5,104.5C 129.167,104.5 127.833,104.5 126.5,104.5C 126.829,98.7945 126.495,93.1278 125.5,87.5C 124.893,87.6236 124.56,87.9569 124.5,88.5C 122.188,91.4789 119.521,94.1456 116.5,96.5C 113.182,93.6828 110.015,90.6828 107,87.5C 106.501,93.1569 106.334,98.8236 106.5,104.5C 104.833,104.5 103.167,104.5 101.5,104.5C 101.5,96.1667 101.5,87.8333 101.5,79.5C 103.527,79.3379 105.527,79.5045 107.5,80C 110.349,83.0162 113.349,85.8496 116.5,88.5C 119.853,85.4778 123.187,82.4778 126.5,79.5 Z"/></g>
<g><path style="opacity:1" fill="#0d75ab" d="M 126.5,79.5 C 127.919,78.5489 129.585,78.2155 131.5,78.5C 131.826,87.3494 131.493,96.0161 130.5,104.5C 130.5,96.1667 130.5,87.8333 130.5,79.5C 129.167,79.5 127.833,79.5 126.5,79.5 Z"/></g>
<g><path style="opacity:0.694" fill="#0f91d2" d="M 56.5,84.5 C 61.1667,84.5 65.8333,84.5 70.5,84.5C 70.7135,86.1439 70.3802,87.6439 69.5,89C 65.1794,89.499 60.8461,89.6657 56.5,89.5C 56.5,87.8333 56.5,86.1667 56.5,84.5 Z M 57.5,85.5 C 59.0478,86.7943 61.0478,87.4609 63.5,87.5C 65.5,87.1667 67.5,86.8333 69.5,86.5C 65.5546,85.5091 61.5546,85.1758 57.5,85.5 Z"/></g>
<g><path style="opacity:1" fill="#0e7fb9" d="M 124.5,88.5 C 124.56,87.9569 124.893,87.6236 125.5,87.5C 126.495,93.1278 126.829,98.7945 126.5,104.5C 125.833,99.1667 125.167,93.8333 124.5,88.5 Z"/></g>
<g><path style="opacity:0.845" fill="#0f92d4" d="M 26.5,81.5 C 27.9791,84.1431 27.6458,86.6431 25.5,89C 27.4956,93.2712 27.9956,97.7712 27,102.5C 26.1667,103.333 25.3333,104.167 24.5,105C 17.1667,105.667 9.83333,105.667 2.5,105C 0.660192,102.174 -0.00647424,99.0071 0.5,95.5C 4.24344,95.5408 4.4101,94.8741 1,93.5C 0.333333,89.1667 0.333333,84.8333 1,80.5C 1.83333,79.6667 2.66667,78.8333 3.5,78C 10.1667,77.3333 16.8333,77.3333 23.5,78C 25.4257,78.4224 26.4257,79.5891 26.5,81.5 Z M 8.5,85.5 C 12.226,85.1774 15.8927,85.5108 19.5,86.5C 17.6667,86.8333 15.8333,87.1667 14,87.5C 11.7047,87.4535 9.87135,86.7868 8.5,85.5 Z M 7.5,96.5 C 9.13405,95.8389 10.9674,95.5056 13,95.5C 15.3747,95.4037 17.5413,95.9037 19.5,97C 15.4126,97.7625 11.4126,97.5958 7.5,96.5 Z"/></g>
<g><path style="opacity:1" fill="#0c6898" d="M 26.5,81.5 C 26.5,83.1667 26.5,84.8333 26.5,86.5C 22.3676,85.7872 18.2009,85.1205 14,84.5C 11.8333,84.6667 9.66667,84.8333 7.5,85C 6.0745,86.7141 6.40783,88.0475 8.5,89C 13.8333,89.3333 19.1667,89.6667 24.5,90C 27.4615,94.9895 27.1282,99.6562 23.5,104C 16.8333,104.667 10.1667,104.667 3.5,104C 1.88664,101.772 1.21997,99.2724 1.5,96.5C 5.35204,97.7165 9.35204,98.7165 13.5,99.5C 15.5,99.3333 17.5,99.1667 19.5,99C 20.3802,97.6439 20.7135,96.1439 20.5,94.5C 14.7711,94.7877 9.10447,94.4544 3.5,93.5C -1.97077,82.1357 1.52923,77.469 14,79.5C 17.5,79.6667 21,79.8333 24.5,80C 25.0442,80.7172 25.7109,81.2172 26.5,81.5 Z"/></g>
<g><path style="opacity:0.661" fill="#0f93d6" d="M 56.5,94.5 C 61.1667,94.5 65.8333,94.5 70.5,94.5C 70.7135,96.1439 70.3802,97.6439 69.5,99C 65.1794,99.499 60.8461,99.6657 56.5,99.5C 56.5,97.8333 56.5,96.1667 56.5,94.5 Z M 57.5,95.5 C 59.0478,96.7943 61.0478,97.4609 63.5,97.5C 65.5,97.3333 67.5,97.1667 69.5,97C 65.7032,95.5761 61.7032,95.0761 57.5,95.5 Z"/></g>
</svg>
